<svg width="225" height="225" version="1.1" xmlns="http://www.w3.org/2000/svg" desc="Created with imagetracer.js version 1.2.6" ><path fill="rgb(117,117,117)" stroke="rgb(117,117,117)" stroke-width="1" opacity="0.17254901960784313" d="M 112 5 Q 116 3.6 114 10.5 Q 122.5 59 154.5 84 Q 169.6 96.9 189.5 105 L 206.5 110 L 212.5 110 L 224 112.5 L 205.5 115 L 205.5 114 L 215 112.5 L 212.5 111 L 206.5 111 L 198.5 109 L 174.5 99 Q 157.7 89.8 145 76.5 L 143 73.5 Q 128.9 60.1 121 40.5 L 115 22.5 L 114 12.5 L 112.5 10 Q 103.9 59.4 71.5 85 Q 48.1 105.6 11 112.5 L 24 115.5 L 21.5 116 L 5 112.5 L 7.5 111 L 18.5 110 L 32.5 106 L 55.5 95 Q 70.5 86 82 73.5 Q 106.3 48 112 5 Z " /><path fill="rgb(117,117,117)" stroke="rgb(117,117,117)" stroke-width="1" opacity="0.17254901960784313" d="M 201.5 115 L 204 115.5 L 201.5 116 L 201.5 115 Z " /><path fill="rgb(117,117,117)" stroke="rgb(117,117,117)" stroke-width="1" opacity="0.17254901960784313" d="M 25.5 116 L 28 116.5 L 25.5 117 L 25.5 116 Z " /><path fill="rgb(117,117,117)" stroke="rgb(117,117,117)" stroke-width="1" opacity="0.17254901960784313" d="M 197.5 116 L 200 116.5 L 197.5 117 L 197.5 116 Z " /><path fill="rgb(117,117,117)" stroke="rgb(117,117,117)" stroke-width="1" opacity="0.17254901960784313" d="M 29.5 117 Q 48.1 121.9 61 132.5 L 58.5 131 Q 46 122.5 29.5 118 L 29.5 117 Z " /><path fill="rgb(117,117,117)" stroke="rgb(117,117,117)" stroke-width="1" opacity="0.17254901960784313" d="M 188.5 119 L 191 119.5 L 184.5 122 L 184.5 121 L 188.5 119 Z " /><path fill="rgb(117,117,117)" stroke="rgb(117,117,117)" stroke-width="1" opacity="0.17254901960784313" d="M 177.5 124 L 179 124.5 Q 156.7 135.2 141.5 153 L 153.5 140 L 177.5 124 Z " /><path fill="rgb(117,117,117)" stroke="rgb(117,117,117)" stroke-width="1" opacity="0.17254901960784313" d="M 62.5 133 L 63.5 135 L 62.5 133 Z " /><path fill="rgb(117,117,117)" stroke="rgb(117,117,117)" stroke-width="1" opacity="0.17254901960784313" d="M 65.5 135 L 67.5 138 L 65.5 135 Z " /><path fill="rgb(117,117,117)" stroke="rgb(117,117,117)" stroke-width="1" opacity="0.17254901960784313" d="M 69.5 138 L 72.5 142 L 69.5 138 Z " /><path fill="rgb(117,117,117)" stroke="rgb(117,117,117)" stroke-width="1" opacity="0.17254901960784313" d="M 83.5 152 L 84.5 154 L 83.5 152 Z " /><path fill="rgb(117,117,117)" stroke="rgb(117,117,117)" stroke-width="1" opacity="0.17254901960784313" d="M 140.5 154 L 137 158.5 L 134.5 162 L 136 159.5 L 140.5 154 Z " /><path fill="rgb(117,117,117)" stroke="rgb(117,117,117)" stroke-width="1" opacity="0.17254901960784313" d="M 88.5 158 L 89.5 160 L 88.5 158 Z " /><path fill="rgb(117,117,117)" stroke="rgb(117,117,117)" stroke-width="1" opacity="0.17254901960784313" d="M 133.5 163 L 132.5 165 L 133.5 163 Z " /><path fill="rgb(117,117,117)" stroke="rgb(117,117,117)" stroke-width="1" opacity="0.17254901960784313" d="M 93.5 165 L 96 168.5 L 94 167.5 L 93.5 165 Z " /><path fill="rgb(117,117,117)" stroke="rgb(117,117,117)" stroke-width="1" opacity="0.17254901960784313" d="M 131.5 166 L 131 167.5 Q 122.3 181.3 117 198.5 L 114 221 Q 111.3 222.1 112 219.5 L 111 218.5 L 110 205.5 L 104 186.5 L 105 186.5 L 110 200.5 L 112.5 215 L 119 189.5 L 128 170.5 L 131.5 166 Z " /><path fill="rgb(117,117,117)" stroke="rgb(117,117,117)" stroke-width="1" opacity="0.17254901960784313" d="M 96.5 170 L 104 184.5 L 103 184.5 L 96.5 170 Z " /><path fill="rgb(0,0,0)" stroke="rgb(0,0,0)" stroke-width="1" opacity="0" d="M 0 0 L 225 0 L 225 225 L 0 225 L 0 0 Z M 112 5 Q 106 48 82 74 Q 70 86 56 95 L 33 106 L 19 110 L 8 111 L 5 113 L 22 116 L 25 115 L 25 117 L 29 116 L 29 118 Q 46 122 59 131 Q 60 134 62 132 L 62 134 Q 63 136 65 134 L 65 136 Q 66 138 68 136 L 69 139 Q 70 141 72 139 L 86 154 Q 85 157 88 156 Q 92 158 89 160 L 91 160 L 93 164 L 93 166 L 94 168 L 96 167 L 95 169 L 97 169 L 96 171 L 99 177 L 101 176 L 100 178 L 103 184 Q 102 186 105 185 L 104 187 L 110 206 L 111 219 L 112 220 Q 111 222 114 221 L 117 199 L 129 171 L 129 169 L 131 169 L 131 168 L 131 166 L 133 165 Q 135 164 133 163 L 135 162 Q 137 161 135 160 L 137 160 L 137 159 Q 140 157 138 156 L 142 153 L 145 150 L 144 149 Q 145 146 147 148 Q 149 147 147 146 Q 148 143 150 145 L 155 141 L 154 140 L 156 140 L 178 125 Q 180 126 179 124 L 181 124 L 181 123 L 183 123 L 183 122 L 185 122 L 189 120 Q 192 121 191 119 L 193 119 L 193 118 L 195 118 Q 197 119 196 117 L 198 117 Q 201 118 200 116 L 202 116 Q 205 117 204 115 L 206 115 L 224 113 L 213 110 L 207 110 L 190 105 Q 170 97 155 84 L 146 75 L 145 76 L 145 75 Q 144 72 143 74 L 143 73 L 133 60 L 132 60 L 132 59 L 119 33 L 114 11 Q 116 4 112 5 Z " /><path fill="rgb(9,9,9)" stroke="rgb(9,9,9)" stroke-width="1" opacity="0.8549019607843137" d="M 112.5 10 L 114 14.5 L 113 14.5 L 112.5 10 Z " /><path fill="rgb(9,9,9)" stroke="rgb(9,9,9)" stroke-width="1" opacity="0.8549019607843137" d="M 111.5 15 L 112 17.5 L 111 17.5 L 111.5 15 Z " /><path fill="rgb(9,9,9)" stroke="rgb(9,9,9)" stroke-width="1" opacity="0.8549019607843137" d="M 116.5 26 L 117 28.5 L 116 28.5 L 116.5 26 Z " /><path fill="rgb(9,9,9)" stroke="rgb(9,9,9)" stroke-width="1" opacity="0.8549019607843137" d="M 123.5 45 L 125 47.5 L 123 46.5 L 123.5 45 Z " /><path fill="rgb(9,9,9)" stroke="rgb(9,9,9)" stroke-width="1" opacity="0.8549019607843137" d="M 100.5 48 L 100 49.5 L 99.5 51 L 99 49.5 L 100.5 48 Z " /><path fill="rgb(9,9,9)" stroke="rgb(9,9,9)" stroke-width="1" opacity="0.8549019607843137" d="M 98.5 52 L 98 53.5 L 96.5 56 L 97 54.5 L 98.5 52 Z " /><path fill="rgb(9,9,9)" stroke="rgb(9,9,9)" stroke-width="1" opacity="0.8549019607843137" d="M 128.5 55 L 129.5 57 L 128.5 55 Z " /><path fill="rgb(9,9,9)" stroke="rgb(9,9,9)" stroke-width="1" opacity="0.8549019607843137" d="M 95.5 57 L 95 58.5 L 92.5 62 L 94 59.5 L 95.5 57 Z " /><path fill="rgb(9,9,9)" stroke="rgb(9,9,9)" stroke-width="1" opacity="0.8549019607843137" d="M 131.5 60 L 137 66.5 L 133 63.5 L 131.5 60 Z " /><path fill="rgb(9,9,9)" stroke="rgb(9,9,9)" stroke-width="1" opacity="0.8549019607843137" d="M 91.5 63 L 90.5 65 L 91.5 63 Z " /><path fill="rgb(9,9,9)" stroke="rgb(9,9,9)" stroke-width="1" opacity="0.8549019607843137" d="M 89.5 66 L 86.5 70 L 89.5 66 Z " /><path fill="rgb(9,9,9)" stroke="rgb(9,9,9)" stroke-width="1" opacity="0.8549019607843137" d="M 137.5 68 L 141.5 73 L 137.5 68 Z " /><path fill="rgb(9,9,9)" stroke="rgb(9,9,9)" stroke-width="1" opacity="0.8549019607843137" d="M 84.5 72 L 74.5 83 L 84.5 72 Z " /><path fill="rgb(9,9,9)" stroke="rgb(9,9,9)" stroke-width="1" opacity="0.8549019607843137" d="M 149.5 80 L 154.5 86 L 149.5 80 Z " /><path fill="rgb(9,9,9)" stroke="rgb(9,9,9)" stroke-width="1" opacity="0.8549019607843137" d="M 70.5 85 L 68.5 88 L 70.5 85 Z " /><path fill="rgb(9,9,9)" stroke="rgb(9,9,9)" stroke-width="1" opacity="0.8549019607843137" d="M 157.5 87 L 159.5 90 L 157.5 87 Z " /><path fill="rgb(9,9,9)" stroke="rgb(9,9,9)" stroke-width="1" opacity="0.8549019607843137" d="M 65.5 89 L 63.5 92 L 65.5 89 Z " /><path fill="rgb(9,9,9)" stroke="rgb(9,9,9)" stroke-width="1" opacity="0.8549019607843137" d="M 161.5 90 L 162.5 92 L 161.5 90 Z " /><path fill="rgb(9,9,9)" stroke="rgb(9,9,9)" stroke-width="1" opacity="0.8549019607843137" d="M 61.5 92 L 60.5 94 L 58.5 95 L 59.5 93 L 61.5 92 Z " /><path fill="rgb(9,9,9)" stroke="rgb(9,9,9)" stroke-width="1" opacity="0.8549019607843137" d="M 164.5 92 L 171 96.5 L 169.5 97 L 164.5 92 Z " /><path fill="rgb(9,9,9)" stroke="rgb(9,9,9)" stroke-width="1" opacity="0.8549019607843137" d="M 56.5 95 L 55.5 97 L 56.5 95 Z " /><path fill="rgb(9,9,9)" stroke="rgb(9,9,9)" stroke-width="1" opacity="0.8549019607843137" d="M 53.5 97 L 52.5 99 L 51 98.5 L 53.5 97 Z " /><path fill="rgb(9,9,9)" stroke="rgb(9,9,9)" stroke-width="1" opacity="0.8549019607843137" d="M 172.5 97 L 173.5 99 L 172.5 97 Z " /><path fill="rgb(9,9,9)" stroke="rgb(9,9,9)" stroke-width="1" opacity="0.8549019607843137" d="M 49.5 99 L 48.5 101 L 43.5 103 L 43.5 102 L 49.5 99 Z " /><path fill="rgb(9,9,9)" stroke="rgb(9,9,9)" stroke-width="1" opacity="0.8549019607843137" d="M 14.5 111 L 17 111.5 L 15 112.5 L 31 116.5 L 29.5 117 L 11 112.5 L 14.5 111 Z " /><path fill="rgb(9,9,9)" stroke="rgb(9,9,9)" stroke-width="1" opacity="0.8549019607843137" d="M 210.5 111 L 215 112.5 L 211.5 113 L 210.5 111 Z " /><path fill="rgb(9,9,9)" stroke="rgb(9,9,9)" stroke-width="1" opacity="0.8549019607843137" d="M 205.5 113 L 210 113.5 L 205.5 114 L 205.5 113 Z " /><path fill="rgb(9,9,9)" stroke="rgb(9,9,9)" stroke-width="1" opacity="0.8549019607843137" d="M 201.5 114 L 204 114.5 L 201.5 115 L 201.5 114 Z " /><path fill="rgb(9,9,9)" stroke="rgb(9,9,9)" stroke-width="1" opacity="0.8549019607843137" d="M 196.5 115 L 200 115.5 L 194.5 117 L 194.5 116 L 196.5 115 Z " /><path fill="rgb(9,9,9)" stroke="rgb(9,9,9)" stroke-width="1" opacity="0.8549019607843137" d="M 32.5 117 L 41 120.5 L 39.5 121 L 32.5 118 L 32.5 117 Z " /><path fill="rgb(9,9,9)" stroke="rgb(9,9,9)" stroke-width="1" opacity="0.8549019607843137" d="M 191.5 117 L 193 117.5 L 189.5 119 L 189.5 118 L 191.5 117 Z " /><path fill="rgb(9,9,9)" stroke="rgb(9,9,9)" stroke-width="1" opacity="0.8549019607843137" d="M 186.5 119 L 188 119.5 L 182.5 122 L 183.5 120 L 186.5 119 Z " /><path fill="rgb(9,9,9)" stroke="rgb(9,9,9)" stroke-width="1" opacity="0.8549019607843137" d="M 42.5 121 L 45 122.5 L 43.5 122 L 42.5 121 Z " /><path fill="rgb(9,9,9)" stroke="rgb(9,9,9)" stroke-width="1" opacity="0.8549019607843137" d="M 46.5 123 L 49 124.5 L 47.5 124 L 46.5 123 Z " /><path fill="rgb(9,9,9)" stroke="rgb(9,9,9)" stroke-width="1" opacity="0.8549019607843137" d="M 177.5 123 L 179 123.5 L 171.5 128 L 172.5 126 L 177.5 123 Z " /><path fill="rgb(9,9,9)" stroke="rgb(9,9,9)" stroke-width="1" opacity="0.8549019607843137" d="M 54.5 127 L 58 129.5 L 56.5 129 L 54.5 127 Z " /><path fill="rgb(9,9,9)" stroke="rgb(9,9,9)" stroke-width="1" opacity="0.8549019607843137" d="M 169.5 128 L 168.5 130 L 169.5 128 Z " /><path fill="rgb(9,9,9)" stroke="rgb(9,9,9)" stroke-width="1" opacity="0.8549019607843137" d="M 59.5 130 L 60.5 132 L 59.5 130 Z " /><path fill="rgb(9,9,9)" stroke="rgb(9,9,9)" stroke-width="1" opacity="0.8549019607843137" d="M 164.5 131 L 163.5 133 L 164.5 131 Z " /><path fill="rgb(9,9,9)" stroke="rgb(9,9,9)" stroke-width="1" opacity="0.8549019607843137" d="M 62.5 132 L 63.5 134 L 62.5 132 Z " /><path fill="rgb(9,9,9)" stroke="rgb(9,9,9)" stroke-width="1" opacity="0.8549019607843137" d="M 161.5 133 L 159.5 136 L 158 135.5 L 161.5 133 Z " /><path fill="rgb(9,9,9)" stroke="rgb(9,9,9)" stroke-width="1" opacity="0.8549019607843137" d="M 65.5 134 L 71 138.5 L 67.5 136 L 65.5 134 Z " /><path fill="rgb(9,9,9)" stroke="rgb(9,9,9)" stroke-width="1" opacity="0.8549019607843137" d="M 156.5 137 L 155.5 139 L 156.5 137 Z " /><path fill="rgb(9,9,9)" stroke="rgb(9,9,9)" stroke-width="1" opacity="0.8549019607843137" d="M 153.5 139 L 149.5 144 L 153.5 139 Z " /><path fill="rgb(9,9,9)" stroke="rgb(9,9,9)" stroke-width="1" opacity="0.8549019607843137" d="M 73.5 140 L 78 143 L 84.5 151 Q 86.8 150.3 86 152.5 L 73.5 140 Z " /><path fill="rgb(9,9,9)" stroke="rgb(9,9,9)" stroke-width="1" opacity="0.8549019607843137" d="M 143.5 149 L 138.5 155 L 143.5 149 Z " /><path fill="rgb(9,9,9)" stroke="rgb(9,9,9)" stroke-width="1" opacity="0.8549019607843137" d="M 86.5 154 L 89.5 158 L 86.5 154 Z " /><path fill="rgb(9,9,9)" stroke="rgb(9,9,9)" stroke-width="1" opacity="0.8549019607843137" d="M 137.5 156 L 135 159.5 L 133.5 162 L 132 161.5 L 137.5 156 Z " /><path fill="rgb(9,9,9)" stroke="rgb(9,9,9)" stroke-width="1" opacity="0.8549019607843137" d="M 90.5 159 L 91.5 161 L 90.5 159 Z " /><path fill="rgb(9,9,9)" stroke="rgb(9,9,9)" stroke-width="1" opacity="0.8549019607843137" d="M 93.5 163 Q 96.1 162.2 95 165.5 L 95.5 167 L 93.5 163 Z " /><path fill="rgb(9,9,9)" stroke="rgb(9,9,9)" stroke-width="1" opacity="0.8549019607843137" d="M 132.5 163 L 131.5 165 L 130 164.5 L 132.5 163 Z " /><path fill="rgb(9,9,9)" stroke="rgb(9,9,9)" stroke-width="1" opacity="0.8549019607843137" d="M 130.5 166 L 129.5 168 L 130.5 166 Z " /><path fill="rgb(9,9,9)" stroke="rgb(9,9,9)" stroke-width="1" opacity="0.8549019607843137" d="M 97.5 170 L 100 175 L 102 175.5 L 100.5 176 L 97.5 170 Z " /><path fill="rgb(9,9,9)" stroke="rgb(9,9,9)" stroke-width="1" opacity="0.8549019607843137" d="M 127.5 171 L 127 172.5 L 125.5 176 L 125 174.5 L 127.5 171 Z " /><path fill="rgb(9,9,9)" stroke="rgb(9,9,9)" stroke-width="1" opacity="0.8549019607843137" d="M 101.5 177 L 104 182.5 L 103 182.5 L 101.5 177 Z " /><path fill="rgb(9,9,9)" stroke="rgb(9,9,9)" stroke-width="1" opacity="0.8549019607843137" d="M 124.5 177 L 124 178.5 L 121.5 184 L 121 182.5 L 124.5 177 Z " /><path fill="rgb(9,9,9)" stroke="rgb(9,9,9)" stroke-width="1" opacity="0.8549019607843137" d="M 120.5 185 L 121 186.5 L 119.5 189 L 119 187.5 L 120.5 185 Z " /><path fill="rgb(9,9,9)" stroke="rgb(9,9,9)" stroke-width="1" opacity="0.8549019607843137" d="M 105.5 186 L 107 190.5 L 106 190.5 L 105.5 186 Z " /><path fill="rgb(9,9,9)" stroke="rgb(9,9,9)" stroke-width="1" opacity="0.8549019607843137" d="M 117.5 193 L 118 194.5 L 116.5 198 L 116 195.5 L 117.5 193 Z " /><path fill="rgb(9,9,9)" stroke="rgb(9,9,9)" stroke-width="1" opacity="0.8549019607843137" d="M 110.5 202 L 111 204.5 L 110 204.5 L 110.5 202 Z " /><path fill="rgb(9,9,9)" stroke="rgb(9,9,9)" stroke-width="1" opacity="0.8549019607843137" d="M 114.5 203 L 115 205.5 L 114 205.5 L 114.5 203 Z " /><path fill="rgb(9,9,9)" stroke="rgb(9,9,9)" stroke-width="1" opacity="0.8549019607843137" d="M 111.5 207 Q 114.5 208.5 111.5 210 L 111.5 207 Z " /><path fill="rgb(9,9,9)" stroke="rgb(9,9,9)" stroke-width="1" opacity="0.8549019607843137" d="M 113.5 210 L 114 212.5 L 112.5 215 L 112 212.5 L 113.5 210 Z " /><path fill="rgb(0,0,0)" stroke="rgb(0,0,0)" stroke-width="1" opacity="0.996078431372549" d="M 112.5 13 Q 114.8 14.8 114 19.5 L 112 19.5 L 111.5 22 L 111 18.5 L 112.5 13 Z " /><path fill="rgb(0,0,0)" stroke="rgb(0,0,0)" stroke-width="1" opacity="0.996078431372549" d="M 114.5 21 L 116 26.5 L 115 26.5 L 114.5 21 Z " /><path fill="rgb(0,0,0)" stroke="rgb(0,0,0)" stroke-width="1" opacity="0.996078431372549" d="M 109.5 26 L 110 28.5 L 109 28.5 L 109.5 26 Z " /><path fill="rgb(0,0,0)" stroke="rgb(0,0,0)" stroke-width="1" opacity="0.996078431372549" d="M 116.5 29 L 123 45.5 L 122 45.5 L 116.5 29 Z " /><path fill="rgb(0,0,0)" stroke="rgb(0,0,0)" stroke-width="1" opacity="0.996078431372549" d="M 107.5 33 L 108 34.5 L 106.5 37 L 106 35.5 L 107.5 33 Z " /><path fill="rgb(0,0,0)" stroke="rgb(0,0,0)" stroke-width="1" opacity="0.996078431372549" d="M 105.5 38 L 106 39.5 L 104.5 42 L 104 40.5 L 105.5 38 Z " /><path fill="rgb(0,0,0)" stroke="rgb(0,0,0)" stroke-width="1" opacity="0.996078431372549" d="M 102.5 45 L 103 46.5 L 99.5 52 L 100 50.5 L 102.5 45 Z " /><path fill="rgb(0,0,0)" stroke="rgb(0,0,0)" stroke-width="1" opacity="0.996078431372549" d="M 123.5 47 L 133 63.5 L 143 76 L 145 76 L 145 78 L 147 78 Q 145.9 80.7 148.5 80 L 159 89.5 L 156.5 88 L 139 72.5 Q 128.3 61.4 123.5 47 Z " /><path fill="rgb(0,0,0)" stroke="rgb(0,0,0)" stroke-width="1" opacity="0.996078431372549" d="M 97.5 55 L 97 56.5 L 95.5 59 L 96 57.5 L 97.5 55 Z " /><path fill="rgb(0,0,0)" stroke="rgb(0,0,0)" stroke-width="1" opacity="0.996078431372549" d="M 94.5 60 L 94 61.5 Q 86.1 74.6 74.5 84 L 73 83.5 L 85 72.5 L 94.5 60 Z " /><path fill="rgb(0,0,0)" stroke="rgb(0,0,0)" stroke-width="1" opacity="0.996078431372549" d="M 71.5 85 L 68.5 89 L 64.5 92 L 67.5 88 L 71.5 85 Z " /><path fill="rgb(0,0,0)" stroke="rgb(0,0,0)" stroke-width="1" opacity="0.996078431372549" d="M 160.5 90 L 166 94.5 L 163.5 93 L 160.5 90 Z " /><path fill="rgb(0,0,0)" stroke="rgb(0,0,0)" stroke-width="1" opacity="0.996078431372549" d="M 62.5 92 L 61.5 94 L 62.5 92 Z " /><path fill="rgb(0,0,0)" stroke="rgb(0,0,0)" stroke-width="1" opacity="0.996078431372549" d="M 59.5 94 L 58.5 96 L 56.5 97 L 57.5 95 L 59.5 94 Z " /><path fill="rgb(0,0,0)" stroke="rgb(0,0,0)" stroke-width="1" opacity="0.996078431372549" d="M 167.5 95 L 168.5 97 L 167.5 95 Z " /><path fill="rgb(0,0,0)" stroke="rgb(0,0,0)" stroke-width="1" opacity="0.996078431372549" d="M 170.5 97 L 183 103.5 L 181.5 104 L 170.5 98 L 170.5 97 Z " /><path fill="rgb(0,0,0)" stroke="rgb(0,0,0)" stroke-width="1" opacity="0.996078431372549" d="M 50.5 99 L 52 99.5 L 49.5 101 L 50.5 99 Z " /><path fill="rgb(0,0,0)" stroke="rgb(0,0,0)" stroke-width="1" opacity="0.996078431372549" d="M 184.5 104 L 190 106.5 L 188.5 107 L 184.5 105 L 184.5 104 Z " /><path fill="rgb(0,0,0)" stroke="rgb(0,0,0)" stroke-width="1" opacity="0.996078431372549" d="M 37.5 105 L 39 105.5 L 35.5 107 L 35.5 106 L 37.5 105 Z " /><path fill="rgb(0,0,0)" stroke="rgb(0,0,0)" stroke-width="1" opacity="0.996078431372549" d="M 31.5 107 L 34 107.5 L 29.5 109 L 29.5 108 L 31.5 107 Z " /><path fill="rgb(0,0,0)" stroke="rgb(0,0,0)" stroke-width="1" opacity="0.996078431372549" d="M 191.5 107 L 196 108.5 L 194.5 109 L 191.5 108 L 191.5 107 Z " /><path fill="rgb(0,0,0)" stroke="rgb(0,0,0)" stroke-width="1" opacity="0.996078431372549" d="M 25.5 109 L 28 109.5 L 22.5 111 L 22.5 110 L 25.5 109 Z " /><path fill="rgb(0,0,0)" stroke="rgb(0,0,0)" stroke-width="1" opacity="0.996078431372549" d="M 197.5 109 L 200 109.5 L 197.5 110 L 197.5 109 Z " /><path fill="rgb(0,0,0)" stroke="rgb(0,0,0)" stroke-width="1" opacity="0.996078431372549" d="M 201.5 110 L 204 110.5 L 201.5 111 L 201.5 110 Z " /><path fill="rgb(0,0,0)" stroke="rgb(0,0,0)" stroke-width="1" opacity="0.996078431372549" d="M 17.5 111 L 21 111.5 Q 20 114 15.5 113 L 15.5 112 L 17.5 111 Z " /><path fill="rgb(0,0,0)" stroke="rgb(0,0,0)" stroke-width="1" opacity="0.996078431372549" d="M 205.5 111 Q 210 110 211 112.5 L 206.5 113 L 205.5 111 Z " /><path fill="rgb(0,0,0)" stroke="rgb(0,0,0)" stroke-width="1" opacity="0.996078431372549" d="M 21.5 113 L 24 113.5 L 21.5 114 L 21.5 113 Z " /><path fill="rgb(0,0,0)" stroke="rgb(0,0,0)" stroke-width="1" opacity="0.996078431372549" d="M 202.5 113 L 205 113.5 L 202.5 114 L 202.5 113 Z " /><path fill="rgb(0,0,0)" stroke="rgb(0,0,0)" stroke-width="1" opacity="0.996078431372549" d="M 198.5 114 L 201 114.5 L 198.5 115 L 198.5 114 Z " /><path fill="rgb(0,0,0)" stroke="rgb(0,0,0)" stroke-width="1" opacity="0.996078431372549" d="M 29.5 115 L 36 117.5 L 34.5 118 L 29.5 116 L 29.5 115 Z " /><path fill="rgb(0,0,0)" stroke="rgb(0,0,0)" stroke-width="1" opacity="0.996078431372549" d="M 194.5 115 L 196 115.5 L 192.5 117 L 192.5 116 L 194.5 115 Z " /><path fill="rgb(0,0,0)" stroke="rgb(0,0,0)" stroke-width="1" opacity="0.996078431372549" d="M 189.5 117 L 191 117.5 L 187.5 119 L 187.5 118 L 189.5 117 Z " /><path fill="rgb(0,0,0)" stroke="rgb(0,0,0)" stroke-width="1" opacity="0.996078431372549" d="M 39.5 119 L 43 120.5 L 41.5 121 L 39.5 119 Z " /><path fill="rgb(0,0,0)" stroke="rgb(0,0,0)" stroke-width="1" opacity="0.996078431372549" d="M 182.5 120 L 181.5 122 L 178.5 123 L 178.5 122 L 182.5 120 Z " /><path fill="rgb(0,0,0)" stroke="rgb(0,0,0)" stroke-width="1" opacity="0.996078431372549" d="M 44.5 121 L 47 122.5 L 45.5 123 L 44.5 121 Z " /><path fill="rgb(0,0,0)" stroke="rgb(0,0,0)" stroke-width="1" opacity="0.996078431372549" d="M 48.5 123 L 67 134.5 L 65.5 134 L 49.5 125 L 48.5 123 Z " /><path fill="rgb(0,0,0)" stroke="rgb(0,0,0)" stroke-width="1" opacity="0.996078431372549" d="M 176.5 123 L 175.5 125 L 160.5 134 L 161.5 132 L 176.5 123 Z " /><path fill="rgb(0,0,0)" stroke="rgb(0,0,0)" stroke-width="1" opacity="0.996078431372549" d="M 158.5 134 L 158 135.5 Q 158.8 137.8 156.5 137 L 138 154.5 L 133.5 160 L 136 156.5 L 148.5 142 L 158.5 134 Z " /><path fill="rgb(0,0,0)" stroke="rgb(0,0,0)" stroke-width="1" opacity="0.996078431372549" d="M 68.5 135 L 77 142.5 L 73.5 140 L 68.5 135 Z " /><path fill="rgb(0,0,0)" stroke="rgb(0,0,0)" stroke-width="1" opacity="0.996078431372549" d="M 78.5 144 L 84.5 151 L 78.5 144 Z " /><path fill="rgb(0,0,0)" stroke="rgb(0,0,0)" stroke-width="1" opacity="0.996078431372549" d="M 86.5 152 L 94 162.5 L 92 161.5 L 86 153.5 L 86.5 152 Z " /><path fill="rgb(0,0,0)" stroke="rgb(0,0,0)" stroke-width="1" opacity="0.996078431372549" d="M 131 162 L 133 162.5 L 131 163.5 L 131 162 Z " /><path fill="rgb(0,0,0)" stroke="rgb(0,0,0)" stroke-width="1" opacity="0.996078431372549" d="M 95.5 164 L 101 174.5 L 100 174.5 L 95 165.5 L 95.5 164 Z " /><path fill="rgb(0,0,0)" stroke="rgb(0,0,0)" stroke-width="1" opacity="0.996078431372549" d="M 129 165 L 131 165.5 L 122.5 180 L 122 178.5 L 129 165 Z " /><path fill="rgb(0,0,0)" stroke="rgb(0,0,0)" stroke-width="1" opacity="0.996078431372549" d="M 101.5 176 L 107 187.5 L 106 187.5 L 101.5 176 Z " /><path fill="rgb(0,0,0)" stroke="rgb(0,0,0)" stroke-width="1" opacity="0.996078431372549" d="M 120.5 183 L 121 184.5 L 119.5 187 L 119 185.5 L 120.5 183 Z " /><path fill="rgb(0,0,0)" stroke="rgb(0,0,0)" stroke-width="1" opacity="0.996078431372549" d="M 118.5 188 L 119 189.5 L 116.5 195 L 116 193.5 L 118.5 188 Z " /><path fill="rgb(0,0,0)" stroke="rgb(0,0,0)" stroke-width="1" opacity="0.996078431372549" d="M 107.5 189 L 110 197.5 L 109 197.5 L 107.5 189 Z " /><path fill="rgb(0,0,0)" stroke="rgb(0,0,0)" stroke-width="1" opacity="0.996078431372549" d="M 115.5 196 L 116 200.5 L 114.5 203 L 114 200.5 L 115.5 196 Z " /><path fill="rgb(0,0,0)" stroke="rgb(0,0,0)" stroke-width="1" opacity="0.996078431372549" d="M 110.5 199 L 112.5 206 L 113.5 204 L 114 209.5 L 112.5 212 L 112 209.5 Q 114.5 208 111 206.5 L 110.5 199 Z " /><path fill="rgb(0,0,0)" stroke="rgb(0,0,0)" stroke-width="1" opacity="1" d="M 112.5 19 L 114 20.5 L 120 41.5 L 128 57.5 Q 136.5 71.5 148.5 82 L 173.5 100 L 188.5 107 L 204.5 111 L 206 112.5 Q 165.8 122.3 142 148.5 Q 120.9 170.9 112.5 206 Q 102.6 161.9 72.5 138 Q 51.4 120.1 20 112.5 L 21.5 111 L 36.5 107 L 58.5 96 Q 74.6 85.6 87 71.5 Q 105 50.5 112.5 19 Z " /></svg>